<?xml version="1.0" encoding="utf-8"?>
<!-- Generator: Adobe Illustrator 23.0.0, SVG Export Plug-In . SVG Version: 6.00 Build 0)  -->
<svg version="1.1" id="Слой_1" xmlns="http://www.w3.org/2000/svg" xmlns:xlink="http://www.w3.org/1999/xlink" x="0px" y="0px"
	 viewBox="0 0 300 133" style="enable-background:new 0 0 300 133;" xml:space="preserve">
<style type="text/css">
	.st0{fill:#25732E;}
	.st1{enable-background:new    ;}
	.st2{fill:none;}
</style>
<g transform="translate(0.000000,133.000000) scale(0.100000,-0.100000)">
	<path class="st0" d="M415.1,1153.7C195,1027.4,72.2,843.9,70.3,640.7c-0.9-61.2,2.8-88.6,18.9-125.5
		c50.1-117.7,159.6-198.5,307.9-227.5l47.2-8.6l2.8-64.3c2.8-62,3.8-64.3,27.4-69c36.8-7.8,50.1,12.6,50.1,80v56.5l40.6,4.7
		c154.9,19.6,296.6,142,328.7,283.2c29.3,133.3-36.8,317.7-160.6,444.8c-69.9,72.2-215.4,171-252.2,171
		C475.5,1185.9,446.2,1171.7,415.1,1153.7z M560.5,1065.1c116.2-77.7,200.3-182,239-298.9c16.1-49.4,18.9-76.9,16.1-140.4
		c-2.8-72.2-6.6-83.9-35.9-128.6c-46.3-72.9-133.2-127.9-228.6-145.9l-26.4-4.7v48.6v48.6l85,72.2c87.8,73.7,95.4,87.9,55.7,105.9
		c-15.1,6.3-27.4,0.8-73.7-36.1c-30.2-23.5-57.6-43.1-60.5-43.1c-3.8,0-6.6,45.5-6.6,101.2c0,108.2-5.7,122.4-49.1,116.9l-21.7-2.4
		L451,562.3c-0.9-107.5-3.8-200-6.6-205.5c-6.6-14.9-95.4,9.4-153,42.4c-60.5,33.7-119,102.8-135.1,160
		c-16.1,54.9-6.6,169.4,18.9,234.5c47.2,117.7,146.4,225.9,278.7,303.6C485.9,1116,482.1,1117.6,560.5,1065.1z"/>
	<g class="st1">
		<path d="M1275.4,553.5c0-1.9-1.5-4.5-4.5-8c-30.5-35.3-68.2-53-113.2-53c-46.9,0-84.4,17.1-112.5,51.3
			c-26.3,31.9-39.4,71.7-39.4,119.5s13.4,87.8,40.1,120c28.4,34.7,66,52,112.7,52c47.3,0,84-16,109.9-48c2.5-3.3,3.8-6,3.8-8.2
			c0-2.7-4.1-10.5-12.4-23.6s-13.3-19.6-15-19.6c-2,0-6.8,3.8-14.3,11.5c-9.2,9.4-17.9,16.4-26,21.1c-13.4,7.7-28.3,11.5-44.5,11.5
			c-30.9,0-55-11.8-72.2-35.4c-15.3-21.1-23-47.7-23-79.7s7.6-58.8,22.7-80.4c17.2-24.2,41.2-36.3,72-36.3
			c15.3,0,30.1,3.8,44.3,11.5c9.4,5,18.9,12.1,28.6,21.3c8.1,7.7,12.6,11.5,13.4,11.5c0.9,0,6.1-6.2,15.5-18.6
			S1275.4,554.7,1275.4,553.5z"/>
		<path d="M1505.6,507.6c0-5.8-1.6-8.7-4.9-8.7c-4.8,0-12.2,0.1-22,0.2s-17.2,0.2-22,0.2c-3.9,0-5.9,2.6-5.9,7.7
			c0,7.5,0.3,18.8,0.8,34s0.8,26.6,0.8,34.2c0,7.2-0.3,18.1-0.8,32.7s-0.8,25.6-0.8,32.9c0,28.1-13.3,42.2-39.8,42.2
			c-8.6,0-19.8-4.3-33.8-12.9c-14.8-9.2-22.3-17.7-22.3-25.3V505.7c0-4.5-1.6-6.8-4.9-6.8c-4.8,0-12.1,0.1-21.8,0.2
			s-17,0.2-21.8,0.2c-3.6,0-5.4,2.1-5.4,6.3v113.2c0,18.4-1,57.7-3,117.7c-0.3,18.6-1.6,46.1-4,82.5c-0.3,1.9-0.5,3.1-0.5,3.8
			c0,2.7,0.9,4.3,2.8,4.9c2.7,0.9,11.5,1.4,26.5,1.4c3.3,0,8.2,0.6,14.8,1.8s11.3,1.8,14.3,1.8c2,0,3-1.5,3-4.5
			c0-14.7-0.6-36.8-1.8-66.2s-1.8-51.5-1.8-66.2c0-3.6,0.6-5.5,1.9-5.6c8,6.7,18.3,14.8,30.9,24.4c15.3,9.5,31.5,14.3,48.5,14.3
			c29.4,0,49.6-8.8,60.7-26.3c8-12.8,12-33.1,12-60.9c0-4.8-0.1-12.3-0.4-22.4s-0.4-17.5-0.4-22.4c0-10,0.2-24.9,0.5-44.8
			S1505.6,517.4,1505.6,507.6z"/>
		<path d="M1749.1,625.2c0-11.6-5-19.3-15-23.2c-6.7-2.5-55.1-7.1-145.1-13.8c2-13.8,9.6-25.5,22.7-35.2
			c12.5-9.2,25.9-13.8,40.3-13.8c24.7,0,47.3,8,68,23.9c2.5,2,5,4.1,7.5,6.1c1.3,0,2.1-0.2,2.5-0.5s3.3-5.7,8.8-16.3
			s8.2-16.2,8.2-17c0-0.9-1.3-2.7-3.8-5.4c-23-24.4-52.4-36.6-88.4-36.6c-36.3,0-65.2,10.8-86.7,32.5
			c-21.6,21.6-32.3,50.5-32.3,86.6c0,32.2,10.3,60.2,30.9,84.1c21.7,24.8,48.4,37.3,79.9,37.3c29.4,0,53.9-10.8,73.6-32.3
			C1739.5,680.7,1749.1,655.2,1749.1,625.2z M1693.3,639.5c0,13-5.1,24.5-15.4,34.5s-21.8,15-34.6,15c-14.4,0-27.1-5.8-38.3-17.3
			s-16.8-24.5-16.8-38.9c0-3.3,2.8-4.9,8.4-4.9c23.1,0,50.8,2.3,83,7C1688.8,636.1,1693.3,637.6,1693.3,639.5z"/>
		<path d="M2040.9,553.5c0-1.9-1.5-4.5-4.5-8c-30.5-35.3-68.2-53-113.2-53c-46.9,0-84.4,17.1-112.5,51.3
			c-26.3,31.9-39.4,71.7-39.4,119.5s13.4,87.8,40.1,120c28.4,34.7,66,52,112.7,52c47.3,0,84-16,109.9-48c2.5-3.3,3.8-6,3.8-8.2
			c0-2.7-4.1-10.5-12.4-23.6s-13.3-19.6-15-19.6c-2,0-6.8,3.8-14.3,11.5c-9.2,9.4-17.9,16.4-26,21.1c-13.4,7.7-28.3,11.5-44.5,11.5
			c-30.9,0-55-11.8-72.2-35.4c-15.3-21.1-23-47.7-23-79.7s7.6-58.8,22.7-80.4c17.2-24.2,41.2-36.3,72-36.3
			c15.3,0,30.1,3.8,44.3,11.5c9.4,5,18.9,12.1,28.6,21.3c8.1,7.7,12.6,11.5,13.4,11.5c0.9,0,6.1-6.2,15.5-18.6
			S2040.9,554.7,2040.9,553.5z"/>
		<path d="M2125.8,824.4l-0.2-3c-3.4-58.1-5.2-108-5.2-149.8c0-18.6,0.3-46.4,0.9-83.6s0.9-64.9,0.9-83.3c0-3.6-1.3-5.4-3.8-5.4
			h-44.8c-2.8,0-4.2,1.8-4.2,5.4c0,18.4,0.2,46.2,0.5,83.3s0.5,65,0.5,83.6c0,16.9-0.8,42.2-2.5,76.1s-2.5,59.1-2.5,75.8
			c0,3.1,1.6,4.7,4.9,4.7c2.8,0,7-0.2,12.7-0.7s9.8-0.7,12.7-0.7c3,0,7.3,0.2,13.1,0.7s10.1,0.7,12.9,0.7S2125.9,826.9,2125.8,824.4
			z"/>
		<path d="M2370.7,625.2c0-11.6-5-19.3-15-23.2c-6.7-2.5-55.1-7.1-145.1-13.8c2-13.8,9.6-25.5,22.7-35.2
			c12.5-9.2,25.9-13.8,40.3-13.8c24.7,0,47.3,8,68,23.9c2.5,2,5,4.1,7.5,6.1c1.3,0,2.1-0.2,2.5-0.5s3.3-5.7,8.8-16.3
			s8.2-16.2,8.2-17c0-0.9-1.3-2.7-3.8-5.4c-23-24.4-52.4-36.6-88.4-36.6c-36.3,0-65.2,10.8-86.7,32.5
			c-21.6,21.6-32.3,50.5-32.3,86.6c0,32.2,10.3,60.2,30.9,84.1c21.7,24.8,48.4,37.3,79.9,37.3c29.4,0,53.9-10.8,73.6-32.3
			C2361.1,680.7,2370.7,655.2,2370.7,625.2z M2314.9,639.5c0,13-5.1,24.5-15.4,34.5s-21.8,15-34.6,15c-14.4,0-27.1-5.8-38.3-17.3
			s-16.8-24.5-16.8-38.9c0-3.3,2.8-4.9,8.4-4.9c23.1,0,50.8,2.3,83,7C2310.4,636.1,2314.9,637.6,2314.9,639.5z"/>
		<path d="M2631.3,711.5c0-0.6-0.2-2-0.7-4.2c-6.1-35.8-9.1-66.6-9.1-92.6c0-1.6,2-36.6,5.9-105.2l0.2-3.3c0.2-4.5-1.9-6.8-6.2-6.8
			s-10.8-0.5-19.5-1.5s-15.1-1.5-19.3-1.5c-3,0-5.2,5.5-6.8,16.4c-1.6,10.9-3,16.4-4.5,16.4c-0.9,0-5.2-3-12.7-9.1
			c-9.2-7.5-17.8-13.2-25.8-17.1c-12.3-6.3-24.7-9.4-37-9.4c-30.3,0-55.9,12.1-76.6,36.3c-19.7,23.1-29.5,50.1-29.5,80.9
			c0,34.7,9.9,63.4,29.8,86c20.8,23.6,48.1,35.4,82,35.4c23.9,0,44.8-8.3,62.6-24.8c2.7-3.1,6.8-7.7,12.4-13.6
			c0.5-0.5,0.9-0.7,1.4-0.7c0.9,0,2.3,4.9,4,14.8s3.9,14.8,6.6,14.8c4.2,0,12.1-1.2,23.7-3.5
			C2624.9,716.1,2631.3,713.6,2631.3,711.5z M2571.5,613.5c0,19.2-5.7,35.7-17.1,49.5c-12,14.8-27.4,22.3-46.2,22.3
			s-34.4-7.3-46.9-22c-12-14.1-18-30.6-18-49.7c0-18.9,6-35.3,18-49.2c12.5-14.5,28.1-21.8,46.9-21.8c18.3,0,33.6,7.4,45.9,22.3
			C2565.8,578.6,2571.5,594.9,2571.5,613.5z"/>
		<path d="M2876,504c0-3.4-1.6-5.2-4.7-5.2c-5.2,0-12.9,0.1-23.1,0.2s-17.9,0.2-23.1,0.2c-2.8,0-4.2,2.3-4.2,6.8
			c0,7.7,0.2,19.3,0.7,34.9s0.7,27.3,0.7,35.2c0,6.3-0.1,15.6-0.2,28s-0.2,21.8-0.2,28c0,17.8-2.6,30.4-7.7,37.7
			c-6.3,8.8-17.8,13.1-34.7,13.1c-7.8,0-18.7-4.4-32.6-13.1c-14.7-9.2-22-17.4-22-24.6V504.7c0-3.9-1.5-5.9-4.5-5.9
			c-5,0-12.5,0.1-22.5,0.2s-17.5,0.2-22.5,0.2c-3.3,0-4.9,1.8-4.9,5.4c0,12.3,0.2,30.9,0.6,55.5s0.6,43.3,0.6,55.8
			c0,33.3-3.5,64-10.5,92.1c-0.5,1.4-0.7,2.4-0.7,3c0,1.6,1,2.7,3,3.3c1.1,0.2,10,1.6,26.8,4.3s25.6,4.1,26.4,4.1
			c0.9,0,1.6-1.3,1.9-3.8c0.8-9.7,2.6-19.5,5.4-29.3c8.1,6.4,18.8,14.4,32.1,23.9c16.4,10,32.3,15,47.6,15
			c29.4,0,49.5-8.5,60.2-25.5c8-12.5,12-32.7,12-60.7c0-4.8-0.1-12.3-0.4-22.3s-0.4-17.5-0.4-22.5c0-10.5,0.2-26.1,0.5-46.9
			S2876,514.5,2876,504z"/>
	</g>
	<rect x="568.4" y="-460.5" class="st2" width="1" height="-2.4"/>
</g>
</svg>
